<mxfile host="app.diagrams.net" agent="Mozilla/5.0 (Windows NT 10.0; Win64; x64) AppleWebKit/537.36 (KHTML, like Gecko) Chrome/129.0.0.0 Safari/537.36 Edg/129.0.0.0" version="24.7.17">
  <diagram id="prtHgNgQTEPvFCAcTncT" name="Page-1">
    <mxGraphModel dx="1002" dy="661" grid="1" gridSize="10" guides="1" tooltips="1" connect="1" arrows="1" fold="1" page="1" pageScale="1" pageWidth="827" pageHeight="1169" math="0" shadow="0">
      <root>
        <mxCell id="0" />
        <mxCell id="1" parent="0" />
        <mxCell id="mOcyGVuNGU_YceIZPlOF-1" value="001" style="rounded=1;whiteSpace=wrap;html=1;strokeWidth=3;strokeColor=#66CC00;fontStyle=1;fontSize=14;" vertex="1" parent="1">
          <mxGeometry x="150" y="230" width="80" height="50" as="geometry" />
        </mxCell>
        <mxCell id="mOcyGVuNGU_YceIZPlOF-2" value="002" style="rounded=1;whiteSpace=wrap;html=1;strokeWidth=3;strokeColor=#66CC00;fontStyle=1;fontSize=14;" vertex="1" parent="1">
          <mxGeometry x="280" y="230" width="80" height="50" as="geometry" />
        </mxCell>
        <mxCell id="mOcyGVuNGU_YceIZPlOF-3" value="003" style="rounded=1;whiteSpace=wrap;html=1;strokeColor=#66CC00;strokeWidth=3;fontStyle=1;fontSize=14;" vertex="1" parent="1">
          <mxGeometry x="404" y="230" width="80" height="50" as="geometry" />
        </mxCell>
        <mxCell id="mOcyGVuNGU_YceIZPlOF-25" style="edgeStyle=orthogonalEdgeStyle;rounded=0;orthogonalLoop=1;jettySize=auto;html=1;exitX=0.5;exitY=1;exitDx=0;exitDy=0;entryX=0.75;entryY=0;entryDx=0;entryDy=0;" edge="1" parent="1" source="mOcyGVuNGU_YceIZPlOF-4" target="mOcyGVuNGU_YceIZPlOF-16">
          <mxGeometry relative="1" as="geometry" />
        </mxCell>
        <mxCell id="mOcyGVuNGU_YceIZPlOF-4" value="004" style="rounded=1;whiteSpace=wrap;html=1;strokeColor=#66CC00;strokeWidth=3;fontStyle=1;fontSize=14;" vertex="1" parent="1">
          <mxGeometry x="540" y="230" width="80" height="50" as="geometry" />
        </mxCell>
        <mxCell id="mOcyGVuNGU_YceIZPlOF-5" style="edgeStyle=orthogonalEdgeStyle;rounded=0;orthogonalLoop=1;jettySize=auto;html=1;exitX=0.5;exitY=1;exitDx=0;exitDy=0;fontStyle=1;fontSize=14;" edge="1" parent="1" source="mOcyGVuNGU_YceIZPlOF-3" target="mOcyGVuNGU_YceIZPlOF-3">
          <mxGeometry relative="1" as="geometry" />
        </mxCell>
        <mxCell id="mOcyGVuNGU_YceIZPlOF-6" value="富强" style="rounded=1;whiteSpace=wrap;html=1;strokeWidth=3;strokeColor=#66CC00;fontStyle=1;fontSize=14;" vertex="1" parent="1">
          <mxGeometry x="150" y="420" width="80" height="50" as="geometry" />
        </mxCell>
        <mxCell id="mOcyGVuNGU_YceIZPlOF-7" value="民主" style="rounded=1;whiteSpace=wrap;html=1;strokeWidth=3;strokeColor=#66CC00;fontStyle=1;fontSize=14;" vertex="1" parent="1">
          <mxGeometry x="280" y="420" width="80" height="50" as="geometry" />
        </mxCell>
        <mxCell id="mOcyGVuNGU_YceIZPlOF-8" value="文明" style="rounded=1;whiteSpace=wrap;html=1;strokeColor=#66CC00;strokeWidth=3;fontStyle=1;fontSize=14;" vertex="1" parent="1">
          <mxGeometry x="404" y="420" width="80" height="50" as="geometry" />
        </mxCell>
        <mxCell id="mOcyGVuNGU_YceIZPlOF-9" value="和谐" style="rounded=1;whiteSpace=wrap;html=1;strokeColor=#66CC00;strokeWidth=3;fontStyle=1;fontSize=14;" vertex="1" parent="1">
          <mxGeometry x="540" y="420" width="80" height="50" as="geometry" />
        </mxCell>
        <mxCell id="mOcyGVuNGU_YceIZPlOF-10" style="edgeStyle=orthogonalEdgeStyle;rounded=0;orthogonalLoop=1;jettySize=auto;html=1;exitX=0.5;exitY=1;exitDx=0;exitDy=0;fontStyle=1;fontSize=14;" edge="1" parent="1" source="mOcyGVuNGU_YceIZPlOF-8" target="mOcyGVuNGU_YceIZPlOF-8">
          <mxGeometry relative="1" as="geometry" />
        </mxCell>
        <mxCell id="mOcyGVuNGU_YceIZPlOF-18" style="edgeStyle=orthogonalEdgeStyle;rounded=0;orthogonalLoop=1;jettySize=auto;html=1;exitX=0.25;exitY=1;exitDx=0;exitDy=0;entryX=0.5;entryY=0;entryDx=0;entryDy=0;" edge="1" parent="1" source="mOcyGVuNGU_YceIZPlOF-16" target="mOcyGVuNGU_YceIZPlOF-6">
          <mxGeometry relative="1" as="geometry">
            <Array as="points">
              <mxPoint x="350" y="370" />
              <mxPoint x="350" y="395" />
              <mxPoint x="190" y="395" />
            </Array>
          </mxGeometry>
        </mxCell>
        <mxCell id="mOcyGVuNGU_YceIZPlOF-21" style="edgeStyle=orthogonalEdgeStyle;rounded=0;orthogonalLoop=1;jettySize=auto;html=1;exitX=0.5;exitY=1;exitDx=0;exitDy=0;entryX=0.5;entryY=0;entryDx=0;entryDy=0;" edge="1" parent="1" source="mOcyGVuNGU_YceIZPlOF-16" target="mOcyGVuNGU_YceIZPlOF-7">
          <mxGeometry relative="1" as="geometry">
            <Array as="points">
              <mxPoint x="370" y="370" />
              <mxPoint x="370" y="395" />
              <mxPoint x="320" y="395" />
            </Array>
          </mxGeometry>
        </mxCell>
        <mxCell id="mOcyGVuNGU_YceIZPlOF-24" style="edgeStyle=orthogonalEdgeStyle;rounded=0;orthogonalLoop=1;jettySize=auto;html=1;exitX=0.5;exitY=1;exitDx=0;exitDy=0;entryX=0.5;entryY=0;entryDx=0;entryDy=0;" edge="1" parent="1" source="mOcyGVuNGU_YceIZPlOF-16" target="mOcyGVuNGU_YceIZPlOF-8">
          <mxGeometry relative="1" as="geometry" />
        </mxCell>
        <mxCell id="mOcyGVuNGU_YceIZPlOF-26" style="edgeStyle=orthogonalEdgeStyle;rounded=0;orthogonalLoop=1;jettySize=auto;html=1;exitX=0.75;exitY=1;exitDx=0;exitDy=0;" edge="1" parent="1" source="mOcyGVuNGU_YceIZPlOF-16" target="mOcyGVuNGU_YceIZPlOF-9">
          <mxGeometry relative="1" as="geometry" />
        </mxCell>
        <mxCell id="mOcyGVuNGU_YceIZPlOF-16" value="哈希函数" style="rounded=1;whiteSpace=wrap;html=1;strokeColor=#66CC00;strokeWidth=3;fontSize=16;fontStyle=1" vertex="1" parent="1">
          <mxGeometry x="340" y="320" width="130" height="50" as="geometry" />
        </mxCell>
        <mxCell id="mOcyGVuNGU_YceIZPlOF-19" style="edgeStyle=orthogonalEdgeStyle;rounded=0;orthogonalLoop=1;jettySize=auto;html=1;exitX=0.5;exitY=1;exitDx=0;exitDy=0;entryX=0.126;entryY=-0.008;entryDx=0;entryDy=0;entryPerimeter=0;" edge="1" parent="1" source="mOcyGVuNGU_YceIZPlOF-1" target="mOcyGVuNGU_YceIZPlOF-16">
          <mxGeometry relative="1" as="geometry" />
        </mxCell>
        <mxCell id="mOcyGVuNGU_YceIZPlOF-20" style="edgeStyle=orthogonalEdgeStyle;rounded=0;orthogonalLoop=1;jettySize=auto;html=1;exitX=0.5;exitY=1;exitDx=0;exitDy=0;entryX=0.366;entryY=-0.056;entryDx=0;entryDy=0;entryPerimeter=0;" edge="1" parent="1" source="mOcyGVuNGU_YceIZPlOF-2" target="mOcyGVuNGU_YceIZPlOF-16">
          <mxGeometry relative="1" as="geometry" />
        </mxCell>
        <mxCell id="mOcyGVuNGU_YceIZPlOF-23" style="edgeStyle=orthogonalEdgeStyle;rounded=0;orthogonalLoop=1;jettySize=auto;html=1;exitX=0.5;exitY=1;exitDx=0;exitDy=0;entryX=0.569;entryY=-0.024;entryDx=0;entryDy=0;entryPerimeter=0;" edge="1" parent="1" source="mOcyGVuNGU_YceIZPlOF-3" target="mOcyGVuNGU_YceIZPlOF-16">
          <mxGeometry relative="1" as="geometry" />
        </mxCell>
        <mxCell id="mOcyGVuNGU_YceIZPlOF-27" value="key" style="text;html=1;align=center;verticalAlign=middle;resizable=0;points=[];autosize=1;strokeColor=none;fillColor=none;fontSize=16;fontStyle=1" vertex="1" parent="1">
          <mxGeometry x="40" y="239" width="50" height="30" as="geometry" />
        </mxCell>
        <mxCell id="mOcyGVuNGU_YceIZPlOF-28" value="value" style="text;html=1;align=center;verticalAlign=middle;resizable=0;points=[];autosize=1;strokeColor=none;fillColor=none;fontSize=16;fontStyle=1" vertex="1" parent="1">
          <mxGeometry x="40" y="421" width="60" height="30" as="geometry" />
        </mxCell>
      </root>
    </mxGraphModel>
  </diagram>
</mxfile>
